HIERARCHY
ROOT Hips
{
  OFFSET -33.9132 29.2015 117.021
  CHANNELS 6 Xposition Yposition Zposition Zrotation Xrotation Yrotation
  JOINT LeftUpLeg
  {
    OFFSET 8.64259 1.95398 -2.38835
    CHANNELS 3 Zrotation Xrotation Yrotation
    JOINT LeftLeg
    {
      OFFSET 43.7702 0 0
      CHANNELS 3 Zrotation Xrotation Yrotation
      JOINT LeftFoot
      {
        OFFSET 40.6238 0 0
        CHANNELS 3 Zrotation Xrotation Yrotation
        JOINT LeftToeBase
        {
          OFFSET 12.7242 0 0
          CHANNELS 3 Zrotation Xrotation Yrotation
          End Site
          {
            OFFSET 0 0 0
          }
        }
      }
    }
  }
  JOINT RightUpLeg
  {
    OFFSET -8.2249 1.95398 -2.59336
    CHANNELS 3 Zrotation Xrotation Yrotation
    JOINT RightLeg
    {
      OFFSET 43.5653 0 0
      CHANNELS 3 Zrotation Xrotation Yrotation
      JOINT RightFoot
      {
        OFFSET 40.6238 0 0
        CHANNELS 3 Zrotation Xrotation Yrotation
        JOINT RightToeBase
        {
          OFFSET 12.7242 0 0
          CHANNELS 3 Zrotation Xrotation Yrotation
          End Site
          {
            OFFSET 0 0 0
          }
        }
      }
    }
  }
  JOINT Spine
  {
    OFFSET 0.165834 0.87714 6.61349
    CHANNELS 3 Zrotation Xrotation Yrotation
    JOINT Spine1
    {
      OFFSET 7.38963 1.71661e-005 0
      CHANNELS 3 Zrotation Xrotation Yrotation
      JOINT Spine2
      {
        OFFSET 11.9445 1.14441e-005 0
        CHANNELS 3 Zrotation Xrotation Yrotation
        JOINT Spine3
        {
          OFFSET 14.7254 4.19617e-005 0
          CHANNELS 3 Zrotation Xrotation Yrotation
          JOINT Spine4
          {
            OFFSET 10.9679 0 0
            CHANNELS 3 Zrotation Xrotation Yrotation
            JOINT RightShoulder
            {
              OFFSET 2.46616 -1.6653 3.69651
              CHANNELS 3 Zrotation Xrotation Yrotation
              JOINT RightArm
              {
                OFFSET 13.0012 0 0
                CHANNELS 3 Zrotation Xrotation Yrotation
                JOINT RightForeArm
                {
                  OFFSET 28.7848 1.62311e-005 0
                  CHANNELS 3 Zrotation Xrotation Yrotation
                  JOINT RightHand
                  {
                    OFFSET 26.5688 1.62095e-005 0
                    CHANNELS 3 Zrotation Xrotation Yrotation
                    End Site
                    {
                      OFFSET 0 0 0
                    }
                  }
                }
              }
            }
            JOINT LeftShoulder
            {
              OFFSET 2.38034 -1.29275 -3.7523
              CHANNELS 3 Zrotation Xrotation Yrotation
              JOINT LeftArm
              {
                OFFSET 16.3182 6.07031e-005 0
                CHANNELS 3 Zrotation Xrotation Yrotation
                JOINT LeftForeArm
                {
                  OFFSET 27.0901 0 0
                  CHANNELS 3 Zrotation Xrotation Yrotation
                  JOINT LeftHand
                  {
                    OFFSET 24.5451 1.51738e-005 0
                    CHANNELS 3 Zrotation Xrotation Yrotation
                    End Site
                    {
                      OFFSET 0 0 0
                    }
                  }
                }
              }
            }
            JOINT Neck
            {
              OFFSET 5.0226 -0.0266342 0
              CHANNELS 3 Zrotation Xrotation Yrotation
              JOINT Head
              {
                OFFSET 6.69364 2.86102e-005 0
                CHANNELS 3 Zrotation Xrotation Yrotation
                End Site
                {
                  OFFSET 0 0 0
                }
              }
            }
          }
        }
      }
    }
  }
}
MOTION
Frames:	11
Frame Time:	0.0416667
-365.382 95.6403 337.195 97.2555 28.0321 81.053 -167.586 -4.80175 93.401 13.8768 51.1829 -19.7349 14.538 -60.9224 37.554 99.9959 17.7746 -36.3812 175.836 -3.56735 88.2157 -19.2951 -15.1335 -5.88075 71.4053 -6.32648 -9.87071 26.2243 -1.72412 10.9394 8.84418 3.58802 -88.7917 20.1456 17.9402 -1.43009 8.60164 17.8593 -2.24455 -14.9342 17.5128 4.20508 5.07843 17.5128 4.20507 81.8452 63.5885 -36.8162 106.332 28.3757 51.1097 174.893 26.4061 -179.749 -4.49016 0.721066 -26.9735 -103.011 -30.5986 49.9774 -20.3336 5.10971 3.19128 162.495 82.4843 -179.816 -53.9499 15.8438 -21.1996 -50.5538 -13.0107 -37.7295 -17.4612 -23.2397 -31.6669 
-365.482 95.6486 337.164 97.2354 28.0835 80.9269 -167.79 -4.92119 93.1521 13.1792 50.9146 -19.3194 12.8927 -60.4439 35.3975 100.224 18.1637 -35.0377 175.645 -3.61339 88.099 -19.2567 -14.5067 -5.79602 72.4637 -7.63216 -11.7887 23.2544 -2.21013 16.341 8.87027 3.66869 -88.7743 19.9779 18.0069 -1.36915 8.43505 17.9286 -2.18694 -15.1072 17.5579 4.28483 4.90549 17.5579 4.28482 81.6997 62.7167 -35.2065 105.725 28.0243 50.8321 174.832 27.5056 -179.716 -4.01901 0.637211 -27.2103 -103.097 -30.0027 49.4586 -20.7552 4.9911 2.54333 162.599 82.8364 -179.807 -76.7121 26.8751 -24.6784 -50.152 -13.2271 -37.7029 -17.016 -23.3302 -31.8784 
-365.774 95.6095 337.091 97.1734 28.2534 80.6069 -168.784 -4.64476 92.0727 9.08467 49.901 -16.9019 11.8231 -58.9142 32.2069 100.368 19.0113 -32.048 174.872 -3.91123 87.5825 -18.5422 -13.5488 -5.36642 74.8556 -11.5745 -17.5693 17.1495 -5.17911 31.447 8.82457 3.89192 -88.7385 19.5013 17.9545 -1.17241 7.95793 17.8849 -1.98795 -15.5739 17.4492 4.45375 4.43877 17.4492 4.45373 81.63 60.2848 -31.1002 105.105 26.3999 49.0385 174.652 30.6366 -179.611 -2.8251 0.424411 -28.1904 -102.928 -28.938 49.0782 -22.4225 3.32648 0.765279 143.105 89.9305 -159.743 -119.747 42.6444 -19.3654 -48.9672 -13.5042 -37.4668 -15.362 -23.4121 -31.5062 
-366.215 95.4184 337.024 97.0649 28.5695 80.1885 -170.383 -3.86533 90.3444 2.09927 47.7001 -12.9912 12.6259 -56.1115 29.3153 100.038 20.1555 -27.808 174.116 -4.45656 86.9383 -16.3828 -11.0572 -5.00108 77.2267 -17.8762 -26.079 18.1616 -12.9398 57.0635 8.69263 4.23496 -88.7226 18.7684 17.7299 -0.923483 7.2221 17.6715 -1.72848 -16.2786 17.1614 4.61526 3.73407 17.1614 4.61526 83.0427 56.0306 -26.4337 104.859 23.2338 45.3622 174.376 35.0339 -179.438 -0.497224 -0.0515654 -30.0636 -102.892 -28.0204 48.5466 -24.4222 2.63863 -1.06039 -17.9765 66.8792 -0.0612501 -149.132 33.1048 -6.09775 -46.8427 -14.0627 -36.6016 -12.921 -23.416 -30.3478 
-366.729 95.2557 336.968 96.8979 29.0615 79.7732 -171.615 -3.17567 88.9342 -4.22215 44.0826 -9.87505 14.9263 -51.6641 26.8642 98.5751 21.2937 -22.7614 173.568 -4.63255 85.7809 -13.8305 -7.63123 -4.7423 78.4799 -25.225 -35.8307 36.6565 -15.7298 86.5563 8.42031 4.67287 -88.7409 17.8313 17.2141 -0.649353 6.27786 17.1683 -1.42979 -17.1595 16.5896 4.70543 2.85313 16.5896 4.70543 86.8652 49.5554 -22.3538 104.822 18.1992 39.5239 173.958 40.8398 -179.149 3.12266 -0.96629 -33.2465 -102.644 -27.4167 48.5899 -27.0193 2.10146 -3.69792 -20.1952 30.375 -0.0278778 -160.854 5.70419 -1.78507 -43.5936 -14.7398 -34.9776 -9.74795 -23.1523 -27.7138 
-367.253 95.3519 336.94 96.6494 29.7578 79.4658 -173.01 -3.27439 87.5266 -8.69323 37.3784 -6.64435 17.7348 -46.0659 23.9824 96.5776 22.282 -17.3667 173.196 -2.86137 83.7609 -14.6403 -2.51201 -4.27104 80.5564 -31.9228 -43.5277 61.2104 -5.42661 101.939 9.81837 6.14749 -86.1501 14.2656 21.3202 4.70489 2.77422 21.5058 3.71801 -20.9036 18.892 11.1002 -0.890983 18.8919 11.1002 98.9696 32.1021 -7.19097 102.663 15.0955 35.7904 174.029 39.9176 -179.199 6.35934 -2.05314 -37.1599 -86.955 12.5025 49.0758 -50.4866 5.28363 -32.0275 -17.3302 -18.6073 -0.0253777 -163.639 -31.915 -1.33728 -24.3698 -22.8282 -66.9171 -6.07418 -29.1556 -12.5505 
-367.706 95.9308 336.964 96.2839 30.684 79.3757 -174.424 -3.39118 86.4675 -11.7908 24.2662 -3.43427 21.5618 -39.0956 19.9028 95.9573 23.1645 -13.1866 173.433 0.331318 81.4989 -18.9186 4.48311 -3.895 84.4967 -36.1797 -47.0917 81.3369 4.99805 101.152 9.06408 6.57088 -86.7615 13.5586 19.5439 3.96933 2.0381 19.6988 3.07158 -21.4724 17.425 9.82191 -1.45978 17.425 9.82191 106.871 22.7442 -7.80318 102.904 4.58972 24.0581 173.435 46.8456 -178.753 11.2555 -4.26104 -44.1415 -89.0112 7.04806 48.6393 -50.3474 3.0728 -29.9647 -14.6163 -56.1608 -0.0387226 -162.054 -63.4776 0.735129 -20.6712 -23.183 -58.0294 -3.0784 -25.9573 -9.84644 
-368.081 96.3949 337.104 95.746 31.8607 79.6273 -175.41 -0.0986879 86.1214 -18.923 -6.81033 -0.334399 27.0744 -29.9572 4.82981 117.95 30.2489 -20.3737 174.473 4.68047 79.3158 -26.6355 13.7689 -3.67827 91.0275 -37.285 -46.0714 96.6442 10.0472 93.7334 8.29789 7.04397 -87.2238 12.6357 17.8042 3.47006 1.08891 17.939 2.6577 -22.2575 15.9208 8.78441 -2.24481 15.9208 8.7844 114.256 12.7209 -9.75043 101.054 -5.0558 13.0067 172.65 53.8176 -178.111 13.8608 -6.31688 -51.8936 -90.2167 3.43641 49.7606 -51.5303 0.882303 -30.6726 171.484 -89.4235 -178.495 -26.7318 -85.6067 135.553 -15.3735 -22.6354 -49.8264 -0.372413 -22.6562 -6.64513 
-368.194 96.4242 337.279 95.2308 33.2439 80.0042 -176.317 3.08981 87.7093 -24.4143 -49.9633 4.34697 19.7875 -24.1226 -32.5361 66.2614 10.6085 107.476 175.971 9.0019 77.4302 -35.7872 24.0335 -3.63331 98.0614 -35.1866 -42.5821 107.366 11.1345 86.3519 7.41054 7.535 -87.7572 11.6901 15.79 2.82272 0.116324 15.8985 2.10735 -23.0632 14.199 7.52621 -3.05058 14.199 7.52619 119.271 3.60997 -13.914 97.7784 -13.0757 2.77142 171.268 62.1292 -176.89 14.6598 -7.97241 -59.8345 -91.4545 -1.1333 51.5779 -51.6943 -0.19357 -31.988 173.747 -61.2679 -179.98 5.66524 -62.7368 167.217 -9.35534 -21.2825 -39.9929 1.57407 -19.0972 -3.79335 
-367.985 96.4279 337.355 95.0517 34.6993 80.1519 -177.213 0.828867 88.4137 -12.1349 -72.2877 15.9379 6.43815 -16.0775 -58.4414 52.7068 -29.393 98.8078 177.284 11.49 75.6563 -42.9846 33.402 -3.71841 102.708 -31.3688 -39.0796 114.422 10.5766 80.6265 6.33737 7.94518 -88.3208 10.9132 13.3933 2.07825 -0.688051 13.4715 1.47598 -23.6943 12.1412 6.06319 -3.68161 12.1412 6.06319 120.501 -2.9346 -21.4118 94.3095 -19.2046 -6.07098 170.322 66.0049 -176.019 11.3907 -6.58169 -62.1965 -92.5948 -7.07987 54.4526 -50.9956 -1.53182 -32.6533 176.605 -34.256 -179.997 9.3983 -38.3882 171.212 -4.72738 -17.8344 -28.7958 3.41341 -15.0566 -2.87646 
-367.468 96.4761 337.416 94.9508 36.2847 80.5123 -177.329 -1.61374 89.3309 1.35321 -76.5762 25.2465 6.46665 -8.08459 -70.8156 55.1122 -19.1399 96.9243 177.933 12.5747 74.3976 -48.3233 40.9645 -3.31449 104.892 -27.7085 -36.404 119.287 9.42241 76.152 5.17317 8.24425 -88.8711 10.3543 10.8226 1.30321 -1.27127 10.8693 0.819924 -24.1214 9.92591 4.52644 -4.10878 9.92591 4.52643 118.591 -7.12019 -32.0611 90.4081 -23.8762 -14.162 170.592 65.0095 -176.27 5.5331 -3.16984 -59.2856 -93.7435 -14.5 57.5966 -48.2421 -3.21361 -31.6335 175.534 -34.4516 -179.992 -5.16751 -53.2116 169.184 -1.16707 -13.4936 -17.1114 4.29065 -11.3327 -3.39007 
